<svg xmlns="http://www.w3.org/2000/svg" xmlns:xlink="http://www.w3.org/1999/xlink" style="margin:auto;background:#ffffff;display:block;z-index:1;position:relative" width="2000" height="575" preserveAspectRatio="xMidYMid" viewBox="0 0 2000 575">
<g transform="translate(1000,287.5) scale(1,-1) translate(-1000,-287.5)"><defs>
  <linearGradient id="ldbk-photon-ljpi10moc58-lg" x1="0" x2="0" y1="0" y2="168.25" gradientUnits="userSpaceOnUse">
    <stop stop-color="#ec7357" offset="0"></stop>
    <stop stop-color="#9404b1" offset="1"></stop>
  </linearGradient>
  <mask id="ldbk-photon-ljpi10moc58-mask">
  <g><path d="M-0.5 -300 L-0.5 180.73515956956683 A19 19 0 0 0 38.5 180.73515956956683 L38.5 -300" fill="#fff">
  <animateTransform attributeName="transform" type="translate" dur="3.3333333333333335s" repeatCount="indefinite" keyTimes="0;0.5;1" calcMode="spline" keySplines="0.5 0 0.5 1;0.5 0 0.5 1" values="0 0;0 27.111829472504073;0 0" begin="0s"></animateTransform>
</path><path d="M-0.5 112.45695374228154 L-0.5 142.73515956956683 A19 19 0 0 0 38.5 142.73515956956683 L38.5 112.45695374228154 A19 19 0 0 0 -0.5 112.45695374228154" fill="#fff">
  <animateTransform attributeName="transform" type="translate" dur="10s" repeatCount="indefinite" keyTimes="0;1" values="0 0;0 342.2415184872889" begin="0s"></animateTransform>
  <animate attributeName="opacity" dur="10s" repeatCount="indefinite" keyTimes="0;0.3;1" values="1;1;0" begin="0s"></animate>
</path><path d="M37.5 -300 L37.5 176.05048031613362 A19 19 0 0 1 76.5 176.05048031613362 L76.5 -300" fill="#fff">
  <animateTransform attributeName="transform" type="translate" dur="10s" repeatCount="indefinite" keyTimes="0;0.5;1" calcMode="spline" keySplines="0.5 0 0.5 1;0.5 0 0.5 1" values="0 0;0 -38.46204106697167;0 0" begin="-0.5660377358490566s"></animateTransform>
</path><path d="M37.5 -56.706561177726186 L37.5 -38 A19 19 0 0 0 76.5 -38 L76.5 -56.706561177726186 A19 19 0 0 0 37.5 -56.706561177726186" fill="#000">
  <animateTransform attributeName="transform" type="translate" dur="5s" repeatCount="indefinite" keyTimes="0;1" values="0;0" begin="-0.5660377358490566s"></animateTransform>
  <animate attributeName="opacity" dur="5s" repeatCount="indefinite" keyTimes="0;0.3;1" values="1;1;0" begin="-0.5660377358490566s"></animate>
</path><path d="M75.5 -300 L75.5 221.51870232635306 A19 19 0 0 0 114.5 221.51870232635306 L114.5 -300" fill="#fff">
  <animateTransform attributeName="transform" type="translate" dur="5s" repeatCount="indefinite" keyTimes="0;0.5;1" calcMode="spline" keySplines="0.5 0 0.5 1;0.5 0 0.5 1" values="0 0;0 26.696628805599616;0 0" begin="-1.1320754716981132s"></animateTransform>
</path><path d="M75.5 172.12988247011614 L75.5 183.51870232635306 A19 19 0 0 0 114.5 183.51870232635306 L114.5 172.12988247011614 A19 19 0 0 0 75.5 172.12988247011614" fill="#fff">
  <animateTransform attributeName="transform" type="translate" dur="5s" repeatCount="indefinite" keyTimes="0;1" values="0 0;0 305.68882225029625" begin="-1.1320754716981132s"></animateTransform>
  <animate attributeName="opacity" dur="5s" repeatCount="indefinite" keyTimes="0;0.3;1" values="1;1;0" begin="-1.1320754716981132s"></animate>
</path><path d="M113.5 -300 L113.5 174.5786214542722 A19 19 0 0 1 152.5 174.5786214542722 L152.5 -300" fill="#fff">
  <animateTransform attributeName="transform" type="translate" dur="5s" repeatCount="indefinite" keyTimes="0;0.5;1" calcMode="spline" keySplines="0.5 0 0.5 1;0.5 0 0.5 1" values="0 0;0 -37.553888822896084;0 0" begin="-1.6981132075471699s"></animateTransform>
</path><path d="M113.5 -49.96527943338172 L113.5 -38 A19 19 0 0 0 152.5 -38 L152.5 -49.96527943338172 A19 19 0 0 0 113.5 -49.96527943338172" fill="#000">
  <animateTransform attributeName="transform" type="translate" dur="3.3333333333333335s" repeatCount="indefinite" keyTimes="0;1" values="0;0" begin="-1.6981132075471699s"></animateTransform>
  <animate attributeName="opacity" dur="3.3333333333333335s" repeatCount="indefinite" keyTimes="0;0.3;1" values="1;1;0" begin="-1.6981132075471699s"></animate>
</path><path d="M151.5 -300 L151.5 197.6195512446649 A19 19 0 0 0 190.5 197.6195512446649 L190.5 -300" fill="#fff">
  <animateTransform attributeName="transform" type="translate" dur="5s" repeatCount="indefinite" keyTimes="0;0.5;1" calcMode="spline" keySplines="0.5 0 0.5 1;0.5 0 0.5 1" values="0 0;0 37.60988682412583;0 0" begin="-2.2641509433962264s"></animateTransform>
</path><path d="M151.5 124.52714935015905 L151.5 159.61955124466488 A19 19 0 0 0 190.5 159.61955124466488 L190.5 124.52714935015905 A19 19 0 0 0 151.5 124.52714935015905" fill="#fff">
  <animateTransform attributeName="transform" type="translate" dur="5s" repeatCount="indefinite" keyTimes="0;1" values="0 0;0 347.1469174884703" begin="-2.2641509433962264s"></animateTransform>
  <animate attributeName="opacity" dur="5s" repeatCount="indefinite" keyTimes="0;0.3;1" values="1;1;0" begin="-2.2641509433962264s"></animate>
</path><path d="M189.5 -300 L189.5 178.32766900488772 A19 19 0 0 1 228.5 178.32766900488772 L228.5 -300" fill="#fff">
  <animateTransform attributeName="transform" type="translate" dur="3.3333333333333335s" repeatCount="indefinite" keyTimes="0;0.5;1" calcMode="spline" keySplines="0.5 0 0.5 1;0.5 0 0.5 1" values="0 0;0 -25.072747835417708;0 0" begin="-2.8301886792452837s"></animateTransform>
</path><path d="M189.5 -66.8350353194981 L189.5 -37.99999999999999 A19 19 0 0 0 228.5 -37.99999999999999 L228.5 -66.8350353194981 A19 19 0 0 0 189.5 -66.8350353194981" fill="#000">
  <animateTransform attributeName="transform" type="translate" dur="5s" repeatCount="indefinite" keyTimes="0;1" values="0;0" begin="-2.8301886792452837s"></animateTransform>
  <animate attributeName="opacity" dur="5s" repeatCount="indefinite" keyTimes="0;0.3;1" values="1;1;0" begin="-2.8301886792452837s"></animate>
</path><path d="M227.5 -300 L227.5 201.57929957580473 A19 19 0 0 0 266.5 201.57929957580473 L266.5 -300" fill="#fff">
  <animateTransform attributeName="transform" type="translate" dur="3.3333333333333335s" repeatCount="indefinite" keyTimes="0;0.5;1" calcMode="spline" keySplines="0.5 0 0.5 1;0.5 0 0.5 1" values="0 0;0 42.15318820962371;0 0" begin="-3.3962264150943398s"></animateTransform>
</path><path d="M227.5 146.64849923639972 L227.5 163.57929957580473 A19 19 0 0 0 266.5 163.57929957580473 L266.5 146.64849923639972 A19 19 0 0 0 227.5 146.64849923639972" fill="#fff">
  <animateTransform attributeName="transform" type="translate" dur="5s" repeatCount="indefinite" keyTimes="0;1" values="0 0;0 321.0472575577441" begin="-3.3962264150943398s"></animateTransform>
  <animate attributeName="opacity" dur="5s" repeatCount="indefinite" keyTimes="0;0.3;1" values="1;1;0" begin="-3.3962264150943398s"></animate>
</path><path d="M265.5 -300 L265.5 191.5971884796685 A19 19 0 0 1 304.5 191.5971884796685 L304.5 -300" fill="#fff">
  <animateTransform attributeName="transform" type="translate" dur="10s" repeatCount="indefinite" keyTimes="0;0.5;1" calcMode="spline" keySplines="0.5 0 0.5 1;0.5 0 0.5 1" values="0 0;0 -44.70072347729017;0 0" begin="-3.9622641509433967s"></animateTransform>
</path><path d="M265.5 -62.06703767988636 L265.5 -38 A19 19 0 0 0 304.5 -38 L304.5 -62.06703767988636 A19 19 0 0 0 265.5 -62.06703767988636" fill="#000">
  <animateTransform attributeName="transform" type="translate" dur="3.3333333333333335s" repeatCount="indefinite" keyTimes="0;1" values="0;0" begin="-3.9622641509433967s"></animateTransform>
  <animate attributeName="opacity" dur="3.3333333333333335s" repeatCount="indefinite" keyTimes="0;0.3;1" values="1;1;0" begin="-3.9622641509433967s"></animate>
</path><path d="M303.5 -300 L303.5 239.23084618402802 A19 19 0 0 0 342.5 239.23084618402802 L342.5 -300" fill="#fff">
  <animateTransform attributeName="transform" type="translate" dur="10s" repeatCount="indefinite" keyTimes="0;0.5;1" calcMode="spline" keySplines="0.5 0 0.5 1;0.5 0 0.5 1" values="0 0;0 26.254282670928024;0 0" begin="-4.528301886792453s"></animateTransform>
</path><path d="M303.5 182.728922383193 L303.5 201.23084618402802 A19 19 0 0 0 342.5 201.23084618402802 L342.5 182.728922383193 A19 19 0 0 0 303.5 182.728922383193" fill="#fff">
  <animateTransform attributeName="transform" type="translate" dur="3.3333333333333335s" repeatCount="indefinite" keyTimes="0;1" values="0 0;0 359.65630437737104" begin="-4.528301886792453s"></animateTransform>
  <animate attributeName="opacity" dur="3.3333333333333335s" repeatCount="indefinite" keyTimes="0;0.3;1" values="1;1;0" begin="-4.528301886792453s"></animate>
</path><path d="M341.5 -300 L341.5 210.04906572277403 A19 19 0 0 1 380.5 210.04906572277403 L380.5 -300" fill="#fff">
  <animateTransform attributeName="transform" type="translate" dur="10s" repeatCount="indefinite" keyTimes="0;0.5;1" calcMode="spline" keySplines="0.5 0 0.5 1;0.5 0 0.5 1" values="0 0;0 -43.61790381053382;0 0" begin="-5.09433962264151s"></animateTransform>
</path><path d="M341.5 -55.45189773196434 L341.5 -38 A19 19 0 0 0 380.5 -38 L380.5 -55.45189773196434 A19 19 0 0 0 341.5 -55.45189773196434" fill="#000">
  <animateTransform attributeName="transform" type="translate" dur="5s" repeatCount="indefinite" keyTimes="0;1" values="0;0" begin="-5.09433962264151s"></animateTransform>
  <animate attributeName="opacity" dur="5s" repeatCount="indefinite" keyTimes="0;0.3;1" values="1;1;0" begin="-5.09433962264151s"></animate>
</path><path d="M379.5 -300 L379.5 243.1086126683232 A19 19 0 0 0 418.5 243.1086126683232 L418.5 -300" fill="#fff">
  <animateTransform attributeName="transform" type="translate" dur="3.3333333333333335s" repeatCount="indefinite" keyTimes="0;0.5;1" calcMode="spline" keySplines="0.5 0 0.5 1;0.5 0 0.5 1" values="0 0;0 41.0276425270105;0 0" begin="-5.6603773584905674s"></animateTransform>
</path><path d="M379.5 194.1501092864274 L379.5 205.1086126683232 A19 19 0 0 0 418.5 205.1086126683232 L418.5 194.1501092864274 A19 19 0 0 0 379.5 194.1501092864274" fill="#fff">
  <animateTransform attributeName="transform" type="translate" dur="10s" repeatCount="indefinite" keyTimes="0;1" values="0 0;0 364.6508685317309" begin="-5.6603773584905674s"></animateTransform>
  <animate attributeName="opacity" dur="10s" repeatCount="indefinite" keyTimes="0;0.3;1" values="1;1;0" begin="-5.6603773584905674s"></animate>
</path><path d="M417.5 -300 L417.5 192.34306265120424 A19 19 0 0 1 456.5 192.34306265120424 L456.5 -300" fill="#fff">
  <animateTransform attributeName="transform" type="translate" dur="3.3333333333333335s" repeatCount="indefinite" keyTimes="0;0.5;1" calcMode="spline" keySplines="0.5 0 0.5 1;0.5 0 0.5 1" values="0 0;0 -43.320883768788065;0 0" begin="-6.2264150943396235s"></animateTransform>
</path><path d="M417.5 -77.7606054238701 L417.5 -38 A19 19 0 0 0 456.5 -38 L456.5 -77.7606054238701 A19 19 0 0 0 417.5 -77.7606054238701" fill="#000">
  <animateTransform attributeName="transform" type="translate" dur="5s" repeatCount="indefinite" keyTimes="0;1" values="0;0" begin="-6.2264150943396235s"></animateTransform>
  <animate attributeName="opacity" dur="5s" repeatCount="indefinite" keyTimes="0;0.3;1" values="1;1;0" begin="-6.2264150943396235s"></animate>
</path><path d="M455.5 -300 L455.5 206.850500290959 A19 19 0 0 0 494.5 206.850500290959 L494.5 -300" fill="#fff">
  <animateTransform attributeName="transform" type="translate" dur="10s" repeatCount="indefinite" keyTimes="0;0.5;1" calcMode="spline" keySplines="0.5 0 0.5 1;0.5 0 0.5 1" values="0 0;0 30.303215790155967;0 0" begin="-6.7924528301886795s"></animateTransform>
</path><path d="M455.5 145.35989152084775 L455.5 168.850500290959 A19 19 0 0 0 494.5 168.850500290959 L494.5 145.35989152084775 A19 19 0 0 0 455.5 145.35989152084775" fill="#fff">
  <animateTransform attributeName="transform" type="translate" dur="10s" repeatCount="indefinite" keyTimes="0;1" values="0 0;0 351.61988706865674" begin="-6.7924528301886795s"></animateTransform>
  <animate attributeName="opacity" dur="10s" repeatCount="indefinite" keyTimes="0;0.3;1" values="1;1;0" begin="-6.7924528301886795s"></animate>
</path><path d="M493.5 -300 L493.5 193.62372181278266 A19 19 0 0 1 532.5 193.62372181278266 L532.5 -300" fill="#fff">
  <animateTransform attributeName="transform" type="translate" dur="10s" repeatCount="indefinite" keyTimes="0;0.5;1" calcMode="spline" keySplines="0.5 0 0.5 1;0.5 0 0.5 1" values="0 0;0 -42.48227153956362;0 0" begin="-7.358490566037736s"></animateTransform>
</path><path d="M493.5 -48.535880544868306 L493.5 -38 A19 19 0 0 0 532.5 -38 L532.5 -48.535880544868306 A19 19 0 0 0 493.5 -48.535880544868306" fill="#000">
  <animateTransform attributeName="transform" type="translate" dur="3.3333333333333335s" repeatCount="indefinite" keyTimes="0;1" values="0;0" begin="-7.358490566037736s"></animateTransform>
  <animate attributeName="opacity" dur="3.3333333333333335s" repeatCount="indefinite" keyTimes="0;0.3;1" values="1;1;0" begin="-7.358490566037736s"></animate>
</path><path d="M531.5 -300 L531.5 244.33272662930466 A19 19 0 0 0 570.5 244.33272662930466 L570.5 -300" fill="#fff">
  <animateTransform attributeName="transform" type="translate" dur="3.3333333333333335s" repeatCount="indefinite" keyTimes="0;0.5;1" calcMode="spline" keySplines="0.5 0 0.5 1;0.5 0 0.5 1" values="0 0;0 37.919454007702456;0 0" begin="-7.924528301886793s"></animateTransform>
</path><path d="M531.5 176.42761666912403 L531.5 206.33272662930466 A19 19 0 0 0 570.5 206.33272662930466 L570.5 176.42761666912403 A19 19 0 0 0 531.5 176.42761666912403" fill="#fff">
  <animateTransform attributeName="transform" type="translate" dur="10s" repeatCount="indefinite" keyTimes="0;1" values="0 0;0 345.1852523488296" begin="-7.924528301886793s"></animateTransform>
  <animate attributeName="opacity" dur="10s" repeatCount="indefinite" keyTimes="0;0.3;1" values="1;1;0" begin="-7.924528301886793s"></animate>
</path><path d="M569.5 -300 L569.5 199.18588744638515 A19 19 0 0 1 608.5 199.18588744638515 L608.5 -300" fill="#fff">
  <animateTransform attributeName="transform" type="translate" dur="3.3333333333333335s" repeatCount="indefinite" keyTimes="0;0.5;1" calcMode="spline" keySplines="0.5 0 0.5 1;0.5 0 0.5 1" values="0 0;0 -31.533208509797646;0 0" begin="-8.49056603773585s"></animateTransform>
</path><path d="M569.5 -73.79630364810443 L569.5 -38 A19 19 0 0 0 608.5 -38 L608.5 -73.79630364810443 A19 19 0 0 0 569.5 -73.79630364810443" fill="#000">
  <animateTransform attributeName="transform" type="translate" dur="10s" repeatCount="indefinite" keyTimes="0;1" values="0;0" begin="-8.49056603773585s"></animateTransform>
  <animate attributeName="opacity" dur="10s" repeatCount="indefinite" keyTimes="0;0.3;1" values="1;1;0" begin="-8.49056603773585s"></animate>
</path><path d="M607.5 -300 L607.5 254.56319018250878 A19 19 0 0 0 646.5 254.56319018250878 L646.5 -300" fill="#fff">
  <animateTransform attributeName="transform" type="translate" dur="3.3333333333333335s" repeatCount="indefinite" keyTimes="0;0.5;1" calcMode="spline" keySplines="0.5 0 0.5 1;0.5 0 0.5 1" values="0 0;0 27.775150620636722;0 0" begin="-9.056603773584905s"></animateTransform>
</path><path d="M607.5 197.3327495848385 L607.5 216.56319018250878 A19 19 0 0 0 646.5 216.56319018250878 L646.5 197.3327495848385 A19 19 0 0 0 607.5 197.3327495848385" fill="#fff">
  <animateTransform attributeName="transform" type="translate" dur="3.3333333333333335s" repeatCount="indefinite" keyTimes="0;1" values="0 0;0 348.0185921039445" begin="-9.056603773584905s"></animateTransform>
  <animate attributeName="opacity" dur="3.3333333333333335s" repeatCount="indefinite" keyTimes="0;0.3;1" values="1;1;0" begin="-9.056603773584905s"></animate>
</path><path d="M645.5 -300 L645.5 197.7304626051921 A19 19 0 0 1 684.5 197.7304626051921 L684.5 -300" fill="#fff">
  <animateTransform attributeName="transform" type="translate" dur="5s" repeatCount="indefinite" keyTimes="0;0.5;1" calcMode="spline" keySplines="0.5 0 0.5 1;0.5 0 0.5 1" values="0 0;0 -39.299128324811676;0 0" begin="-9.622641509433961s"></animateTransform>
</path><path d="M645.5 -57.102113639982676 L645.5 -38 A19 19 0 0 0 684.5 -38 L684.5 -57.102113639982676 A19 19 0 0 0 645.5 -57.102113639982676" fill="#000">
  <animateTransform attributeName="transform" type="translate" dur="10s" repeatCount="indefinite" keyTimes="0;1" values="0;0" begin="-9.622641509433961s"></animateTransform>
  <animate attributeName="opacity" dur="10s" repeatCount="indefinite" keyTimes="0;0.3;1" values="1;1;0" begin="-9.622641509433961s"></animate>
</path><path d="M683.5 -300 L683.5 228.71177813809024 A19 19 0 0 0 722.5 228.71177813809024 L722.5 -300" fill="#fff">
  <animateTransform attributeName="transform" type="translate" dur="10s" repeatCount="indefinite" keyTimes="0;0.5;1" calcMode="spline" keySplines="0.5 0 0.5 1;0.5 0 0.5 1" values="0 0;0 41.86837947992974;0 0" begin="-10.18867924528302s"></animateTransform>
</path><path d="M683.5 160.8035717900674 L683.5 190.71177813809024 A19 19 0 0 0 722.5 190.71177813809024 L722.5 160.8035717900674 A19 19 0 0 0 683.5 160.8035717900674" fill="#fff">
  <animateTransform attributeName="transform" type="translate" dur="5s" repeatCount="indefinite" keyTimes="0;1" values="0 0;0 382.4641209066983" begin="-10.18867924528302s"></animateTransform>
  <animate attributeName="opacity" dur="5s" repeatCount="indefinite" keyTimes="0;0.3;1" values="1;1;0" begin="-10.18867924528302s"></animate>
</path><path d="M721.5 -300 L721.5 207.11568484876233 A19 19 0 0 1 760.5 207.11568484876233 L760.5 -300" fill="#fff">
  <animateTransform attributeName="transform" type="translate" dur="3.3333333333333335s" repeatCount="indefinite" keyTimes="0;0.5;1" calcMode="spline" keySplines="0.5 0 0.5 1;0.5 0 0.5 1" values="0 0;0 -45.44181179034234;0 0" begin="-10.754716981132075s"></animateTransform>
</path><path d="M721.5 -50.053100247585206 L721.5 -38 A19 19 0 0 0 760.5 -38 L760.5 -50.053100247585206 A19 19 0 0 0 721.5 -50.053100247585206" fill="#000">
  <animateTransform attributeName="transform" type="translate" dur="10s" repeatCount="indefinite" keyTimes="0;1" values="0;0" begin="-10.754716981132075s"></animateTransform>
  <animate attributeName="opacity" dur="10s" repeatCount="indefinite" keyTimes="0;0.3;1" values="1;1;0" begin="-10.754716981132075s"></animate>
</path><path d="M759.5 -300 L759.5 232.0208501136833 A19 19 0 0 0 798.5 232.0208501136833 L798.5 -300" fill="#fff">
  <animateTransform attributeName="transform" type="translate" dur="5s" repeatCount="indefinite" keyTimes="0;0.5;1" calcMode="spline" keySplines="0.5 0 0.5 1;0.5 0 0.5 1" values="0 0;0 42.88763696666457;0 0" begin="-11.320754716981135s"></animateTransform>
</path><path d="M759.5 165.50781283849807 L759.5 194.0208501136833 A19 19 0 0 0 798.5 194.0208501136833 L798.5 165.50781283849807 A19 19 0 0 0 759.5 165.50781283849807" fill="#fff">
  <animateTransform attributeName="transform" type="translate" dur="10s" repeatCount="indefinite" keyTimes="0;1" values="0 0;0 381.5708845588539" begin="-11.320754716981135s"></animateTransform>
  <animate attributeName="opacity" dur="10s" repeatCount="indefinite" keyTimes="0;0.3;1" values="1;1;0" begin="-11.320754716981135s"></animate>
</path><path d="M797.5 -300 L797.5 186.68787422871637 A19 19 0 0 1 836.5 186.68787422871637 L836.5 -300" fill="#fff">
  <animateTransform attributeName="transform" type="translate" dur="10s" repeatCount="indefinite" keyTimes="0;0.5;1" calcMode="spline" keySplines="0.5 0 0.5 1;0.5 0 0.5 1" values="0 0;0 -30.89601668996239;0 0" begin="-11.88679245283019s"></animateTransform>
</path><path d="M797.5 -51.32129483925954 L797.5 -38 A19 19 0 0 0 836.5 -38 L836.5 -51.32129483925954 A19 19 0 0 0 797.5 -51.32129483925954" fill="#000">
  <animateTransform attributeName="transform" type="translate" dur="10s" repeatCount="indefinite" keyTimes="0;1" values="0;0" begin="-11.88679245283019s"></animateTransform>
  <animate attributeName="opacity" dur="10s" repeatCount="indefinite" keyTimes="0;0.3;1" values="1;1;0" begin="-11.88679245283019s"></animate>
</path><path d="M835.5 -300 L835.5 199.8888053909356 A19 19 0 0 0 874.5 199.8888053909356 L874.5 -300" fill="#fff">
  <animateTransform attributeName="transform" type="translate" dur="3.3333333333333335s" repeatCount="indefinite" keyTimes="0;0.5;1" calcMode="spline" keySplines="0.5 0 0.5 1;0.5 0 0.5 1" values="0 0;0 29.580413974199192;0 0" begin="-12.452830188679247s"></animateTransform>
</path><path d="M835.5 126.84417832686893 L835.5 161.8888053909356 A19 19 0 0 0 874.5 161.8888053909356 L874.5 126.84417832686893 A19 19 0 0 0 835.5 126.84417832686893" fill="#fff">
  <animateTransform attributeName="transform" type="translate" dur="5s" repeatCount="indefinite" keyTimes="0;1" values="0 0;0 371.6702130471962" begin="-12.452830188679247s"></animateTransform>
  <animate attributeName="opacity" dur="5s" repeatCount="indefinite" keyTimes="0;0.3;1" values="1;1;0" begin="-12.452830188679247s"></animate>
</path><path d="M873.5 -300 L873.5 183.62469105645474 A19 19 0 0 1 912.5 183.62469105645474 L912.5 -300" fill="#fff">
  <animateTransform attributeName="transform" type="translate" dur="10s" repeatCount="indefinite" keyTimes="0;0.5;1" calcMode="spline" keySplines="0.5 0 0.5 1;0.5 0 0.5 1" values="0 0;0 -43.38197786378909;0 0" begin="-13.018867924528301s"></animateTransform>
</path><path d="M873.5 -51.37060278011421 L873.5 -38 A19 19 0 0 0 912.5 -38 L912.5 -51.37060278011421 A19 19 0 0 0 873.5 -51.37060278011421" fill="#000">
  <animateTransform attributeName="transform" type="translate" dur="5s" repeatCount="indefinite" keyTimes="0;1" values="0;0" begin="-13.018867924528301s"></animateTransform>
  <animate attributeName="opacity" dur="5s" repeatCount="indefinite" keyTimes="0;0.3;1" values="1;1;0" begin="-13.018867924528301s"></animate>
</path><path d="M911.5 -300 L911.5 207.85572752404016 A19 19 0 0 0 950.5 207.85572752404016 L950.5 -300" fill="#fff">
  <animateTransform attributeName="transform" type="translate" dur="5s" repeatCount="indefinite" keyTimes="0;0.5;1" calcMode="spline" keySplines="0.5 0 0.5 1;0.5 0 0.5 1" values="0 0;0 40.11133599009579;0 0" begin="-13.584905660377359s"></animateTransform>
</path><path d="M911.5 152.90044921353606 L911.5 169.85572752404016 A19 19 0 0 0 950.5 169.85572752404016 L950.5 152.90044921353606 A19 19 0 0 0 911.5 152.90044921353606" fill="#fff">
  <animateTransform attributeName="transform" type="translate" dur="5s" repeatCount="indefinite" keyTimes="0;1" values="0 0;0 336.0720351512332" begin="-13.584905660377359s"></animateTransform>
  <animate attributeName="opacity" dur="5s" repeatCount="indefinite" keyTimes="0;0.3;1" values="1;1;0" begin="-13.584905660377359s"></animate>
</path><path d="M949.5 -300 L949.5 191.90214166447623 A19 19 0 0 1 988.5 191.90214166447623 L988.5 -300" fill="#fff">
  <animateTransform attributeName="transform" type="translate" dur="10s" repeatCount="indefinite" keyTimes="0;0.5;1" calcMode="spline" keySplines="0.5 0 0.5 1;0.5 0 0.5 1" values="0 0;0 -35.05316822037831;0 0" begin="-14.150943396226413s"></animateTransform>
</path><path d="M949.5 -56.8163517442659 L949.5 -38 A19 19 0 0 0 988.5 -38 L988.5 -56.8163517442659 A19 19 0 0 0 949.5 -56.8163517442659" fill="#000">
  <animateTransform attributeName="transform" type="translate" dur="3.3333333333333335s" repeatCount="indefinite" keyTimes="0;1" values="0;0" begin="-14.150943396226413s"></animateTransform>
  <animate attributeName="opacity" dur="3.3333333333333335s" repeatCount="indefinite" keyTimes="0;0.3;1" values="1;1;0" begin="-14.150943396226413s"></animate>
</path><path d="M987.5 -300 L987.5 193.358377384137 A19 19 0 0 0 1026.5 193.358377384137 L1026.5 -300" fill="#fff">
  <animateTransform attributeName="transform" type="translate" dur="5s" repeatCount="indefinite" keyTimes="0;0.5;1" calcMode="spline" keySplines="0.5 0 0.5 1;0.5 0 0.5 1" values="0 0;0 29.151847309532858;0 0" begin="-14.716981132075473s"></animateTransform>
</path><path d="M987.5 126.14056086070326 L987.5 155.358377384137 A19 19 0 0 0 1026.5 155.358377384137 L1026.5 126.14056086070326 A19 19 0 0 0 987.5 126.14056086070326" fill="#fff">
  <animateTransform attributeName="transform" type="translate" dur="10s" repeatCount="indefinite" keyTimes="0;1" values="0 0;0 284.71887189935353" begin="-14.716981132075473s"></animateTransform>
  <animate attributeName="opacity" dur="10s" repeatCount="indefinite" keyTimes="0;0.3;1" values="1;1;0" begin="-14.716981132075473s"></animate>
</path><path d="M1025.5 -300 L1025.5 181.21577601706343 A19 19 0 0 1 1064.5 181.21577601706343 L1064.5 -300" fill="#fff">
  <animateTransform attributeName="transform" type="translate" dur="3.3333333333333335s" repeatCount="indefinite" keyTimes="0;0.5;1" calcMode="spline" keySplines="0.5 0 0.5 1;0.5 0 0.5 1" values="0 0;0 -27.569339922983293;0 0" begin="-15.283018867924527s"></animateTransform>
</path><path d="M1025.5 -61.12741187240714 L1025.5 -38 A19 19 0 0 0 1064.5 -38 L1064.5 -61.12741187240714 A19 19 0 0 0 1025.5 -61.12741187240714" fill="#000">
  <animateTransform attributeName="transform" type="translate" dur="5s" repeatCount="indefinite" keyTimes="0;1" values="0;0" begin="-15.283018867924527s"></animateTransform>
  <animate attributeName="opacity" dur="5s" repeatCount="indefinite" keyTimes="0;0.3;1" values="1;1;0" begin="-15.283018867924527s"></animate>
</path><path d="M1063.5 -300 L1063.5 212.86051670571825 A19 19 0 0 0 1102.5 212.86051670571825 L1102.5 -300" fill="#fff">
  <animateTransform attributeName="transform" type="translate" dur="10s" repeatCount="indefinite" keyTimes="0;0.5;1" calcMode="spline" keySplines="0.5 0 0.5 1;0.5 0 0.5 1" values="0 0;0 49.153693567094535;0 0" begin="-15.849056603773587s"></animateTransform>
</path><path d="M1063.5 136.25880465737643 L1063.5 174.86051670571825 A19 19 0 0 0 1102.5 174.86051670571825 L1102.5 136.25880465737643 A19 19 0 0 0 1063.5 136.25880465737643" fill="#fff">
  <animateTransform attributeName="transform" type="translate" dur="5s" repeatCount="indefinite" keyTimes="0;1" values="0 0;0 254.06183149149317" begin="-15.849056603773587s"></animateTransform>
  <animate attributeName="opacity" dur="5s" repeatCount="indefinite" keyTimes="0;0.3;1" values="1;1;0" begin="-15.849056603773587s"></animate>
</path><path d="M1101.5 -300 L1101.5 174.81792731714768 A19 19 0 0 1 1140.5 174.81792731714768 L1140.5 -300" fill="#fff">
  <animateTransform attributeName="transform" type="translate" dur="5s" repeatCount="indefinite" keyTimes="0;0.5;1" calcMode="spline" keySplines="0.5 0 0.5 1;0.5 0 0.5 1" values="0 0;0 -34.01154825799388;0 0" begin="-16.41509433962264s"></animateTransform>
</path><path d="M1101.5 -70.92521166597703 L1101.5 -38.00000000000001 A19 19 0 0 0 1140.5 -38.00000000000001 L1140.5 -70.92521166597703 A19 19 0 0 0 1101.5 -70.92521166597703" fill="#000">
  <animateTransform attributeName="transform" type="translate" dur="10s" repeatCount="indefinite" keyTimes="0;1" values="0;0" begin="-16.41509433962264s"></animateTransform>
  <animate attributeName="opacity" dur="10s" repeatCount="indefinite" keyTimes="0;0.3;1" values="1;1;0" begin="-16.41509433962264s"></animate>
</path><path d="M1139.5 -300 L1139.5 186.40845536448674 A19 19 0 0 0 1178.5 186.40845536448674 L1178.5 -300" fill="#fff">
  <animateTransform attributeName="transform" type="translate" dur="5s" repeatCount="indefinite" keyTimes="0;0.5;1" calcMode="spline" keySplines="0.5 0 0.5 1;0.5 0 0.5 1" values="0 0;0 32.37048660112428;0 0" begin="-16.9811320754717s"></animateTransform>
</path><path d="M1139.5 120.40563871089046 L1139.5 148.40845536448674 A19 19 0 0 0 1178.5 148.40845536448674 L1178.5 120.40563871089046 A19 19 0 0 0 1139.5 120.40563871089046" fill="#fff">
  <animateTransform attributeName="transform" type="translate" dur="3.3333333333333335s" repeatCount="indefinite" keyTimes="0;1" values="0 0;0 253.41505978231493" begin="-16.9811320754717s"></animateTransform>
  <animate attributeName="opacity" dur="3.3333333333333335s" repeatCount="indefinite" keyTimes="0;0.3;1" values="1;1;0" begin="-16.9811320754717s"></animate>
</path><path d="M1177.5 -300 L1177.5 142.6853799036857 A19 19 0 0 1 1216.5 142.6853799036857 L1216.5 -300" fill="#fff">
  <animateTransform attributeName="transform" type="translate" dur="5s" repeatCount="indefinite" keyTimes="0;0.5;1" calcMode="spline" keySplines="0.5 0 0.5 1;0.5 0 0.5 1" values="0 0;0 -38.149004338205174;0 0" begin="-17.547169811320753s"></animateTransform>
</path><path d="M1177.5 -73.11882593120623 L1177.5 -38 A19 19 0 0 0 1216.5 -38 L1216.5 -73.11882593120623 A19 19 0 0 0 1177.5 -73.11882593120623" fill="#000">
  <animateTransform attributeName="transform" type="translate" dur="3.3333333333333335s" repeatCount="indefinite" keyTimes="0;1" values="0;0" begin="-17.547169811320753s"></animateTransform>
  <animate attributeName="opacity" dur="3.3333333333333335s" repeatCount="indefinite" keyTimes="0;0.3;1" values="1;1;0" begin="-17.547169811320753s"></animate>
</path><path d="M1215.5 -300 L1215.5 151.26233408784114 A19 19 0 0 0 1254.5 151.26233408784114 L1254.5 -300" fill="#fff">
  <animateTransform attributeName="transform" type="translate" dur="10s" repeatCount="indefinite" keyTimes="0;0.5;1" calcMode="spline" keySplines="0.5 0 0.5 1;0.5 0 0.5 1" values="0 0;0 43.48375293505565;0 0" begin="-18.11320754716981s"></animateTransform>
</path><path d="M1215.5 85.52984593051747 L1215.5 113.26233408784114 A19 19 0 0 0 1254.5 113.26233408784114 L1254.5 85.52984593051747 A19 19 0 0 0 1215.5 85.52984593051747" fill="#fff">
  <animateTransform attributeName="transform" type="translate" dur="5s" repeatCount="indefinite" keyTimes="0;1" values="0 0;0 384.29056550722237" begin="-18.11320754716981s"></animateTransform>
  <animate attributeName="opacity" dur="5s" repeatCount="indefinite" keyTimes="0;0.3;1" values="1;1;0" begin="-18.11320754716981s"></animate>
</path><path d="M1253.5 -300 L1253.5 144.94052233633198 A19 19 0 0 1 1292.5 144.94052233633198 L1292.5 -300" fill="#fff">
  <animateTransform attributeName="transform" type="translate" dur="3.3333333333333335s" repeatCount="indefinite" keyTimes="0;0.5;1" calcMode="spline" keySplines="0.5 0 0.5 1;0.5 0 0.5 1" values="0 0;0 -38.571932191689406;0 0" begin="-18.679245283018865s"></animateTransform>
</path><path d="M1253.5 -76.53075074030707 L1253.5 -38 A19 19 0 0 0 1292.5 -38 L1292.5 -76.53075074030707 A19 19 0 0 0 1253.5 -76.53075074030707" fill="#000">
  <animateTransform attributeName="transform" type="translate" dur="3.3333333333333335s" repeatCount="indefinite" keyTimes="0;1" values="0;0" begin="-18.679245283018865s"></animateTransform>
  <animate attributeName="opacity" dur="3.3333333333333335s" repeatCount="indefinite" keyTimes="0;0.3;1" values="1;1;0" begin="-18.679245283018865s"></animate>
</path><path d="M1291.5 -300 L1291.5 177.9092749349547 A19 19 0 0 0 1330.5 177.9092749349547 L1330.5 -300" fill="#fff">
  <animateTransform attributeName="transform" type="translate" dur="5s" repeatCount="indefinite" keyTimes="0;0.5;1" calcMode="spline" keySplines="0.5 0 0.5 1;0.5 0 0.5 1" values="0 0;0 40.51797969378107;0 0" begin="-19.245283018867923s"></animateTransform>
</path><path d="M1291.5 122.72675194801397 L1291.5 139.9092749349547 A19 19 0 0 0 1330.5 139.9092749349547 L1330.5 122.72675194801397 A19 19 0 0 0 1291.5 122.72675194801397" fill="#fff">
  <animateTransform attributeName="transform" type="translate" dur="5s" repeatCount="indefinite" keyTimes="0;1" values="0 0;0 275.6448900278201" begin="-19.245283018867923s"></animateTransform>
  <animate attributeName="opacity" dur="5s" repeatCount="indefinite" keyTimes="0;0.3;1" values="1;1;0" begin="-19.245283018867923s"></animate>
</path><path d="M1329.5 -300 L1329.5 150.05700753659679 A19 19 0 0 1 1368.5 150.05700753659679 L1368.5 -300" fill="#fff">
  <animateTransform attributeName="transform" type="translate" dur="3.3333333333333335s" repeatCount="indefinite" keyTimes="0;0.5;1" calcMode="spline" keySplines="0.5 0 0.5 1;0.5 0 0.5 1" values="0 0;0 -32.27129503881913;0 0" begin="-19.81132075471698s"></animateTransform>
</path><path d="M1329.5 -52.21617114336151 L1329.5 -38 A19 19 0 0 0 1368.5 -38 L1368.5 -52.21617114336151 A19 19 0 0 0 1329.5 -52.21617114336151" fill="#000">
  <animateTransform attributeName="transform" type="translate" dur="5s" repeatCount="indefinite" keyTimes="0;1" values="0;0" begin="-19.81132075471698s"></animateTransform>
  <animate attributeName="opacity" dur="5s" repeatCount="indefinite" keyTimes="0;0.3;1" values="1;1;0" begin="-19.81132075471698s"></animate>
</path><path d="M1367.5 -300 L1367.5 186.82230689612803 A19 19 0 0 0 1406.5 186.82230689612803 L1406.5 -300" fill="#fff">
  <animateTransform attributeName="transform" type="translate" dur="3.3333333333333335s" repeatCount="indefinite" keyTimes="0;0.5;1" calcMode="spline" keySplines="0.5 0 0.5 1;0.5 0 0.5 1" values="0 0;0 49.583742256663896;0 0" begin="-20.37735849056604s"></animateTransform>
</path><path d="M1367.5 114.7623581462106 L1367.5 148.82230689612803 A19 19 0 0 0 1406.5 148.82230689612803 L1406.5 114.7623581462106 A19 19 0 0 0 1367.5 114.7623581462106" fill="#fff">
  <animateTransform attributeName="transform" type="translate" dur="10s" repeatCount="indefinite" keyTimes="0;1" values="0 0;0 321.51363480705214" begin="-20.37735849056604s"></animateTransform>
  <animate attributeName="opacity" dur="10s" repeatCount="indefinite" keyTimes="0;0.3;1" values="1;1;0" begin="-20.37735849056604s"></animate>
</path><path d="M1405.5 -300 L1405.5 156.74194250834637 A19 19 0 0 1 1444.5 156.74194250834637 L1444.5 -300" fill="#fff">
  <animateTransform attributeName="transform" type="translate" dur="10s" repeatCount="indefinite" keyTimes="0;0.5;1" calcMode="spline" keySplines="0.5 0 0.5 1;0.5 0 0.5 1" values="0 0;0 -29.8675766233654;0 0" begin="-20.943396226415093s"></animateTransform>
</path><path d="M1405.5 -65.82651568004357 L1405.5 -38 A19 19 0 0 0 1444.5 -38 L1444.5 -65.82651568004357 A19 19 0 0 0 1405.5 -65.82651568004357" fill="#000">
  <animateTransform attributeName="transform" type="translate" dur="10s" repeatCount="indefinite" keyTimes="0;1" values="0;0" begin="-20.943396226415093s"></animateTransform>
  <animate attributeName="opacity" dur="10s" repeatCount="indefinite" keyTimes="0;0.3;1" values="1;1;0" begin="-20.943396226415093s"></animate>
</path><path d="M1443.5 -300 L1443.5 171.77525751380995 A19 19 0 0 0 1482.5 171.77525751380995 L1482.5 -300" fill="#fff">
  <animateTransform attributeName="transform" type="translate" dur="3.3333333333333335s" repeatCount="indefinite" keyTimes="0;0.5;1" calcMode="spline" keySplines="0.5 0 0.5 1;0.5 0 0.5 1" values="0 0;0 49.51584831651164;0 0" begin="-21.50943396226415s"></animateTransform>
</path><path d="M1443.5 122.99834203997042 L1443.5 133.77525751380995 A19 19 0 0 0 1482.5 133.77525751380995 L1482.5 122.99834203997042 A19 19 0 0 0 1443.5 122.99834203997042" fill="#fff">
  <animateTransform attributeName="transform" type="translate" dur="5s" repeatCount="indefinite" keyTimes="0;1" values="0 0;0 256.2839981896296" begin="-21.50943396226415s"></animateTransform>
  <animate attributeName="opacity" dur="5s" repeatCount="indefinite" keyTimes="0;0.3;1" values="1;1;0" begin="-21.50943396226415s"></animate>
</path><path d="M1481.5 -300 L1481.5 137.90409675381062 A19 19 0 0 1 1520.5 137.90409675381062 L1520.5 -300" fill="#fff">
  <animateTransform attributeName="transform" type="translate" dur="10s" repeatCount="indefinite" keyTimes="0;0.5;1" calcMode="spline" keySplines="0.5 0 0.5 1;0.5 0 0.5 1" values="0 0;0 -47.37556509707128;0 0" begin="-22.075471698113205s"></animateTransform>
</path><path d="M1481.5 -72.12702592988778 L1481.5 -38 A19 19 0 0 0 1520.5 -38 L1520.5 -72.12702592988778 A19 19 0 0 0 1481.5 -72.12702592988778" fill="#000">
  <animateTransform attributeName="transform" type="translate" dur="5s" repeatCount="indefinite" keyTimes="0;1" values="0;0" begin="-22.075471698113205s"></animateTransform>
  <animate attributeName="opacity" dur="5s" repeatCount="indefinite" keyTimes="0;0.3;1" values="1;1;0" begin="-22.075471698113205s"></animate>
</path><path d="M1519.5 -300 L1519.5 156.00919827707168 A19 19 0 0 0 1558.5 156.00919827707168 L1558.5 -300" fill="#fff">
  <animateTransform attributeName="transform" type="translate" dur="5s" repeatCount="indefinite" keyTimes="0;0.5;1" calcMode="spline" keySplines="0.5 0 0.5 1;0.5 0 0.5 1" values="0 0;0 32.335510555589806;0 0" begin="-22.64150943396227s"></animateTransform>
</path><path d="M1519.5 106.03330035560086 L1519.5 118.00919827707168 A19 19 0 0 0 1558.5 118.00919827707168 L1558.5 106.03330035560086 A19 19 0 0 0 1519.5 106.03330035560086" fill="#fff">
  <animateTransform attributeName="transform" type="translate" dur="10s" repeatCount="indefinite" keyTimes="0;1" values="0 0;0 239.3571640318072" begin="-22.64150943396227s"></animateTransform>
  <animate attributeName="opacity" dur="10s" repeatCount="indefinite" keyTimes="0;0.3;1" values="1;1;0" begin="-22.64150943396227s"></animate>
</path><path d="M1557.5 -300 L1557.5 139.5350127809407 A19 19 0 0 1 1596.5 139.5350127809407 L1596.5 -300" fill="#fff">
  <animateTransform attributeName="transform" type="translate" dur="5s" repeatCount="indefinite" keyTimes="0;0.5;1" calcMode="spline" keySplines="0.5 0 0.5 1;0.5 0 0.5 1" values="0 0;0 -36.25098241197767;0 0" begin="-23.20754716981132s"></animateTransform>
</path><path d="M1557.5 -56.91345376645343 L1557.5 -38 A19 19 0 0 0 1596.5 -38 L1596.5 -56.91345376645343 A19 19 0 0 0 1557.5 -56.91345376645343" fill="#000">
  <animateTransform attributeName="transform" type="translate" dur="10s" repeatCount="indefinite" keyTimes="0;1" values="0;0" begin="-23.20754716981132s"></animateTransform>
  <animate attributeName="opacity" dur="10s" repeatCount="indefinite" keyTimes="0;0.3;1" values="1;1;0" begin="-23.20754716981132s"></animate>
</path><path d="M1595.5 -300 L1595.5 157.94518188930374 A19 19 0 0 0 1634.5 157.94518188930374 L1634.5 -300" fill="#fff">
  <animateTransform attributeName="transform" type="translate" dur="5s" repeatCount="indefinite" keyTimes="0;0.5;1" calcMode="spline" keySplines="0.5 0 0.5 1;0.5 0 0.5 1" values="0 0;0 49.29015979728656;0 0" begin="-23.77358490566038s"></animateTransform>
</path><path d="M1595.5 86.87573216940481 L1595.5 119.94518188930374 A19 19 0 0 0 1634.5 119.94518188930374 L1634.5 86.87573216940481 A19 19 0 0 0 1595.5 86.87573216940481" fill="#fff">
  <animateTransform attributeName="transform" type="translate" dur="3.3333333333333335s" repeatCount="indefinite" keyTimes="0;1" values="0 0;0 312.93368260823695" begin="-23.77358490566038s"></animateTransform>
  <animate attributeName="opacity" dur="3.3333333333333335s" repeatCount="indefinite" keyTimes="0;0.3;1" values="1;1;0" begin="-23.77358490566038s"></animate>
</path><path d="M1633.5 -300 L1633.5 143.3373540928414 A19 19 0 0 1 1672.5 143.3373540928414 L1672.5 -300" fill="#fff">
  <animateTransform attributeName="transform" type="translate" dur="5s" repeatCount="indefinite" keyTimes="0;0.5;1" calcMode="spline" keySplines="0.5 0 0.5 1;0.5 0 0.5 1" values="0 0;0 -42.06950928892202;0 0" begin="-24.339622641509436s"></animateTransform>
</path><path d="M1633.5 -60.24139231612605 L1633.5 -38 A19 19 0 0 0 1672.5 -38 L1672.5 -60.24139231612605 A19 19 0 0 0 1633.5 -60.24139231612605" fill="#000">
  <animateTransform attributeName="transform" type="translate" dur="10s" repeatCount="indefinite" keyTimes="0;1" values="0;0" begin="-24.339622641509436s"></animateTransform>
  <animate attributeName="opacity" dur="10s" repeatCount="indefinite" keyTimes="0;0.3;1" values="1;1;0" begin="-24.339622641509436s"></animate>
</path><path d="M1671.5 -300 L1671.5 159.38317981256117 A19 19 0 0 0 1710.5 159.38317981256117 L1710.5 -300" fill="#fff">
  <animateTransform attributeName="transform" type="translate" dur="3.3333333333333335s" repeatCount="indefinite" keyTimes="0;0.5;1" calcMode="spline" keySplines="0.5 0 0.5 1;0.5 0 0.5 1" values="0 0;0 32.24471457453951;0 0" begin="-24.905660377358494s"></animateTransform>
</path><path d="M1671.5 101.112020279316 L1671.5 121.38317981256117 A19 19 0 0 0 1710.5 121.38317981256117 L1710.5 101.112020279316 A19 19 0 0 0 1671.5 101.112020279316" fill="#fff">
  <animateTransform attributeName="transform" type="translate" dur="3.3333333333333335s" repeatCount="indefinite" keyTimes="0;1" values="0 0;0 332.4430399340914" begin="-24.905660377358494s"></animateTransform>
  <animate attributeName="opacity" dur="3.3333333333333335s" repeatCount="indefinite" keyTimes="0;0.3;1" values="1;1;0" begin="-24.905660377358494s"></animate>
</path><path d="M1709.5 -300 L1709.5 143.0906660563733 A19 19 0 0 1 1748.5 143.0906660563733 L1748.5 -300" fill="#fff">
  <animateTransform attributeName="transform" type="translate" dur="3.3333333333333335s" repeatCount="indefinite" keyTimes="0;0.5;1" calcMode="spline" keySplines="0.5 0 0.5 1;0.5 0 0.5 1" values="0 0;0 -26.945461434617773;0 0" begin="-25.471698113207548s"></animateTransform>
</path><path d="M1709.5 -62.83304605259819 L1709.5 -38 A19 19 0 0 0 1748.5 -38 L1748.5 -62.83304605259819 A19 19 0 0 0 1709.5 -62.83304605259819" fill="#000">
  <animateTransform attributeName="transform" type="translate" dur="10s" repeatCount="indefinite" keyTimes="0;1" values="0;0" begin="-25.471698113207548s"></animateTransform>
  <animate attributeName="opacity" dur="10s" repeatCount="indefinite" keyTimes="0;0.3;1" values="1;1;0" begin="-25.471698113207548s"></animate>
</path><path d="M1747.5 -300 L1747.5 175.68424633749135 A19 19 0 0 0 1786.5 175.68424633749135 L1786.5 -300" fill="#fff">
  <animateTransform attributeName="transform" type="translate" dur="10s" repeatCount="indefinite" keyTimes="0;0.5;1" calcMode="spline" keySplines="0.5 0 0.5 1;0.5 0 0.5 1" values="0 0;0 48.14311782408835;0 0" begin="-26.037735849056602s"></animateTransform>
</path><path d="M1747.5 100.97700638137047 L1747.5 137.68424633749135 A19 19 0 0 0 1786.5 137.68424633749135 L1786.5 100.97700638137047 A19 19 0 0 0 1747.5 100.97700638137047" fill="#fff">
  <animateTransform attributeName="transform" type="translate" dur="10s" repeatCount="indefinite" keyTimes="0;1" values="0 0;0 283.15409855092713" begin="-26.037735849056602s"></animateTransform>
  <animate attributeName="opacity" dur="10s" repeatCount="indefinite" keyTimes="0;0.3;1" values="1;1;0" begin="-26.037735849056602s"></animate>
</path><path d="M1785.5 -300 L1785.5 168.45325855074333 A19 19 0 0 1 1824.5 168.45325855074333 L1824.5 -300" fill="#fff">
  <animateTransform attributeName="transform" type="translate" dur="3.3333333333333335s" repeatCount="indefinite" keyTimes="0;0.5;1" calcMode="spline" keySplines="0.5 0 0.5 1;0.5 0 0.5 1" values="0 0;0 -47.56966133451964;0 0" begin="-26.60377358490566s"></animateTransform>
</path><path d="M1785.5 -67.66945647428003 L1785.5 -38 A19 19 0 0 0 1824.5 -38 L1824.5 -67.66945647428003 A19 19 0 0 0 1785.5 -67.66945647428003" fill="#000">
  <animateTransform attributeName="transform" type="translate" dur="5s" repeatCount="indefinite" keyTimes="0;1" values="0;0" begin="-26.60377358490566s"></animateTransform>
  <animate attributeName="opacity" dur="5s" repeatCount="indefinite" keyTimes="0;0.3;1" values="1;1;0" begin="-26.60377358490566s"></animate>
</path><path d="M1823.5 -300 L1823.5 191.1377800710045 A19 19 0 0 0 1862.5 191.1377800710045 L1862.5 -300" fill="#fff">
  <animateTransform attributeName="transform" type="translate" dur="5s" repeatCount="indefinite" keyTimes="0;0.5;1" calcMode="spline" keySplines="0.5 0 0.5 1;0.5 0 0.5 1" values="0 0;0 36.20976372019739;0 0" begin="-27.169811320754718s"></animateTransform>
</path><path d="M1823.5 139.60041714600078 L1823.5 153.1377800710045 A19 19 0 0 0 1862.5 153.1377800710045 L1862.5 139.60041714600078 A19 19 0 0 0 1823.5 139.60041714600078" fill="#fff">
  <animateTransform attributeName="transform" type="translate" dur="3.3333333333333335s" repeatCount="indefinite" keyTimes="0;1" values="0 0;0 317.5667619153192" begin="-27.169811320754718s"></animateTransform>
  <animate attributeName="opacity" dur="3.3333333333333335s" repeatCount="indefinite" keyTimes="0;0.3;1" values="1;1;0" begin="-27.169811320754718s"></animate>
</path><path d="M1861.5 -300 L1861.5 152.84456085843664 A19 19 0 0 1 1900.5 152.84456085843664 L1900.5 -300" fill="#fff">
  <animateTransform attributeName="transform" type="translate" dur="3.3333333333333335s" repeatCount="indefinite" keyTimes="0;0.5;1" calcMode="spline" keySplines="0.5 0 0.5 1;0.5 0 0.5 1" values="0 0;0 -45.578200766897396;0 0" begin="-27.735849056603776s"></animateTransform>
</path><path d="M1861.5 -69.77207804525602 L1861.5 -38 A19 19 0 0 0 1900.5 -38 L1900.5 -69.77207804525602 A19 19 0 0 0 1861.5 -69.77207804525602" fill="#000">
  <animateTransform attributeName="transform" type="translate" dur="5s" repeatCount="indefinite" keyTimes="0;1" values="0;0" begin="-27.735849056603776s"></animateTransform>
  <animate attributeName="opacity" dur="5s" repeatCount="indefinite" keyTimes="0;0.3;1" values="1;1;0" begin="-27.735849056603776s"></animate>
</path><path d="M1899.5 -300 L1899.5 207.3796098519445 A19 19 0 0 0 1938.5 207.3796098519445 L1938.5 -300" fill="#fff">
  <animateTransform attributeName="transform" type="translate" dur="5s" repeatCount="indefinite" keyTimes="0;0.5;1" calcMode="spline" keySplines="0.5 0 0.5 1;0.5 0 0.5 1" values="0 0;0 33.70271410299727;0 0" begin="-28.301886792452827s"></animateTransform>
</path><path d="M1899.5 139.36617120572146 L1899.5 169.3796098519445 A19 19 0 0 0 1938.5 169.3796098519445 L1938.5 139.36617120572146 A19 19 0 0 0 1899.5 139.36617120572146" fill="#fff">
  <animateTransform attributeName="transform" type="translate" dur="10s" repeatCount="indefinite" keyTimes="0;1" values="0 0;0 313.2685437944575" begin="-28.301886792452827s"></animateTransform>
  <animate attributeName="opacity" dur="10s" repeatCount="indefinite" keyTimes="0;0.3;1" values="1;1;0" begin="-28.301886792452827s"></animate>
</path><path d="M1937.5 -300 L1937.5 177.3587540750533 A19 19 0 0 1 1976.5 177.3587540750533 L1976.5 -300" fill="#fff">
  <animateTransform attributeName="transform" type="translate" dur="5s" repeatCount="indefinite" keyTimes="0;0.5;1" calcMode="spline" keySplines="0.5 0 0.5 1;0.5 0 0.5 1" values="0 0;0 -40.33152367770555;0 0" begin="-28.867924528301888s"></animateTransform>
</path><path d="M1937.5 -59.91478533298496 L1937.5 -38 A19 19 0 0 0 1976.5 -38 L1976.5 -59.91478533298496 A19 19 0 0 0 1937.5 -59.91478533298496" fill="#000">
  <animateTransform attributeName="transform" type="translate" dur="3.3333333333333335s" repeatCount="indefinite" keyTimes="0;1" values="0;0" begin="-28.867924528301888s"></animateTransform>
  <animate attributeName="opacity" dur="3.3333333333333335s" repeatCount="indefinite" keyTimes="0;0.3;1" values="1;1;0" begin="-28.867924528301888s"></animate>
</path><path d="M1975.5 -300 L1975.5 199.58981437561545 A19 19 0 0 0 2014.5 199.58981437561545 L2014.5 -300" fill="#fff">
  <animateTransform attributeName="transform" type="translate" dur="3.3333333333333335s" repeatCount="indefinite" keyTimes="0;0.5;1" calcMode="spline" keySplines="0.5 0 0.5 1;0.5 0 0.5 1" values="0 0;0 38.42330025395439;0 0" begin="-29.433962264150946s"></animateTransform>
</path><path d="M1975.5 150.1706260632771 L1975.5 161.58981437561545 A19 19 0 0 0 2014.5 161.58981437561545 L2014.5 150.1706260632771 A19 19 0 0 0 1975.5 150.1706260632771" fill="#fff">
  <animateTransform attributeName="transform" type="translate" dur="5s" repeatCount="indefinite" keyTimes="0;1" values="0 0;0 282.3921828669468" begin="-29.433962264150946s"></animateTransform>
  <animate attributeName="opacity" dur="5s" repeatCount="indefinite" keyTimes="0;0.3;1" values="1;1;0" begin="-29.433962264150946s"></animate>
</path>    </g>
  </mask>
</defs>
<rect x="0" y="0" width="2000" height="575" fill="url(#ldbk-photon-ljpi10moc58-lg)" mask="url(#ldbk-photon-ljpi10moc58-mask)"></rect></g>
</svg>