<svg xmlns="http://www.w3.org/2000/svg" xmlns:xlink="http://www.w3.org/1999/xlink" style="margin:auto;background:#ec7357;display:block;z-index:1;position:relative" width="1239" height="575" preserveAspectRatio="xMidYMid" viewBox="0 0 1239 575">
<g transform="translate(619.5,287.5) scale(1,1) translate(-619.5,-287.5)"><defs>
  <path id="path-v0g3fsd4clk-1" d="M-35 -35L35 -35L35 35L-35 35Z" fill="none" stroke="inherit" stroke-width="4.411764705882352" transform="scale(0.34)"></path>
  <path id="path-v0g3fsd4clk-2" d="M0 -37A37 37 0 0 1 0 37A37 37 0 0 1 0 -37" fill="none" stroke="inherit" stroke-width="4.411764705882352" transform="scale(0.34)"></path>
  <path id="path-v0g3fsd4clk-3" d="M0 -34.641L40 34.641L-40 34.641Z" fill="none" stroke="inherit" stroke-width="4.411764705882352" transform="scale(0.34)"></path>
</defs><path id="path0" d="M 65.35258011791412 299.4794979975949
c 0 36.52893699184618 -8.937931391621937 10.492354242338797 -19.430285633960732 10.492354242338797
S 26.492008849992654 336.00843498944107 26.492008849992654 299.4794979975949
s 8.937931391621937 -10.492354242338797 19.430285633960732 -10.492354242338797
S 65.35258011791412 262.9505610057487 65.35258011791412 299.4794979975949
z" fill="none" stroke="none"></path>
<use xlink:href="#path-v0g3fsd4clk-1" x="0" y="0" stroke="#9404b1">
  <animateMotion begin="-2.5347252790385135s" dur="6.701211397788516s" keyPoints="1;0" keyTimes="0;1" repeatCount="indefinite" calcMode="linear">
    <mpath xlink:href="#path0"></mpath>
  </animateMotion>
</use><path id="path1" d="M 131.9646589494995 299.9074305223992
c 0 47.298309990368715 -11.57299074232426 13.58568478446761 -25.158675526791868 13.58568478446761
S 81.64730789591577 347.2057405127679 81.64730789591577 299.9074305223992
s 11.57299074232426 -13.58568478446761 25.158675526791868 -13.58568478446761
S 131.9646589494995 252.60912053203046 131.9646589494995 299.9074305223992
z" fill="none" stroke="none"></path>
<use xlink:href="#path-v0g3fsd4clk-3" x="0" y="0" stroke="#00ebfd">
  <animateMotion begin="-1.078126720817226s" dur="7.892226779316137s" keyPoints="1;0" keyTimes="0;1" repeatCount="indefinite" calcMode="linear">
    <mpath xlink:href="#path1"></mpath>
  </animateMotion>
</use><path id="path2" d="M 150.07525143391484 253.33355797156605
c 0 32.51660059135693 -7.956189506395844 9.339874637942948 -17.296064144338793 9.339874637942948
S 115.48312314523724 285.85015856292296 115.48312314523724 253.33355797156605
s 7.956189506395844 -9.339874637942948 17.296064144338793 -9.339874637942948
S 150.07525143391484 220.81695738020912 150.07525143391484 253.33355797156605
z" fill="none" stroke="none"></path>
<use xlink:href="#path-v0g3fsd4clk-1" x="0" y="0" stroke="#00ebfd">
  <animateMotion begin="-1.3931963419301416s" dur="8.740739772803911s" keyPoints="0;1" keyTimes="0;1" repeatCount="indefinite" calcMode="linear">
    <mpath xlink:href="#path2"></mpath>
  </animateMotion>
</use><path id="path3" d="M 208.55629411651552 67.3753351550857
c 0 39.056272305949676 -9.556321947200452 11.218290981496184 -20.774612928696637 11.218290981496184
S 167.00706825912226 106.43160746103537 167.00706825912226 67.3753351550857
s 9.556321947200452 -11.218290981496184 20.774612928696637 -11.218290981496184
S 208.55629411651552 28.319062849136017 208.55629411651552 67.3753351550857
z" fill="none" stroke="none"></path>
<use xlink:href="#path-v0g3fsd4clk-3" x="0" y="0" stroke="#f7f900">
  <animateMotion begin="-0.9911876564417423s" dur="6.400034207573086s" keyPoints="0;1" keyTimes="0;1" repeatCount="indefinite" calcMode="linear">
    <mpath xlink:href="#path3"></mpath>
  </animateMotion>
</use><path id="path4" d="M 271.19653960333613 404.8858025439967
c 0 20.24800999881788 -4.954300318859694 5.815917765617902 -10.770218084477596 5.815917765617902
S 249.65610343438092 425.1338125428146 249.65610343438092 404.8858025439967
s 4.954300318859694 -5.815917765617902 10.770218084477596 -5.815917765617902
S 271.19653960333613 384.6377925451788 271.19653960333613 404.8858025439967
z" fill="none" stroke="none"></path>
<use xlink:href="#path-v0g3fsd4clk-1" x="0" y="0" stroke="#9404b1">
  <animateMotion begin="-2.7203760450657213s" dur="6.903485681873887s" keyPoints="0;1" keyTimes="0;1" repeatCount="indefinite" calcMode="linear">
    <mpath xlink:href="#path4"></mpath>
  </animateMotion>
</use><path id="path5" d="M 292.8560402370756 343.56238719468627
c 0 34.26128460182053 -8.383080274913532 9.841007279246321 -18.224087554159855 9.841007279246321
S 256.40786512875593 377.8236717965068 256.40786512875593 343.56238719468627
s 8.383080274913532 -9.841007279246321 18.224087554159855 -9.841007279246321
S 292.8560402370756 309.30110259286573 292.8560402370756 343.56238719468627
z" fill="none" stroke="none"></path>
<use xlink:href="#path-v0g3fsd4clk-1" x="0" y="0" stroke="#00ebfd">
  <animateMotion begin="-0.8036875355373067s" dur="8.197288419572173s" keyPoints="0;1" keyTimes="0;1" repeatCount="indefinite" calcMode="linear">
    <mpath xlink:href="#path5"></mpath>
  </animateMotion>
</use><path id="path6" d="M 359.8987955872342 398.8735538558686
c 0 46.311578606458426 -11.331556467537698 13.302261940152952 -24.63381840769065 13.302261940152952
S 310.63115877185294 445.18513246232703 310.63115877185294 398.8735538558686
s 11.331556467537698 -13.302261940152952 24.63381840769065 -13.302261940152952
S 359.8987955872342 352.5619752494101 359.8987955872342 398.8735538558686
z" fill="none" stroke="none"></path>
<use xlink:href="#path-v0g3fsd4clk-2" x="0" y="0" stroke="#00ebfd">
  <animateMotion begin="-2.7245218057300225s" dur="7.075022821998931s" keyPoints="0;1" keyTimes="0;1" repeatCount="indefinite" calcMode="linear">
    <mpath xlink:href="#path6"></mpath>
  </animateMotion>
</use><path id="path7" d="M 406.87934976554976 203.6677066433746
c 0 38.2219612367529 -9.35218200473741 10.978648440343918 -20.330830445081325 10.978648440343918
S 366.21768887538707 241.8896678801275 366.21768887538707 203.6677066433746
s 9.35218200473741 -10.978648440343918 20.330830445081325 -10.978648440343918
S 406.87934976554976 165.4457454066217 406.87934976554976 203.6677066433746
z" fill="none" stroke="none"></path>
<use xlink:href="#path-v0g3fsd4clk-3" x="0" y="0" stroke="#00ebfd">
  <animateMotion begin="-2.3673328784838965s" dur="7.308930878287321s" keyPoints="0;1" keyTimes="0;1" repeatCount="indefinite" calcMode="linear">
    <mpath xlink:href="#path7"></mpath>
  </animateMotion>
</use><path id="path8" d="M 476.5632437407151 383.9886814117329
c 0 25.380165115100567 -6.21004040050333 7.290047426677823 -13.500087827181153 7.290047426677823
S 449.56306808635276 409.36884652683347 449.56306808635276 383.9886814117329
s 6.21004040050333 -7.290047426677823 13.500087827181153 -7.290047426677823
S 476.5632437407151 358.60851629663233 476.5632437407151 383.9886814117329
z" fill="none" stroke="none"></path>
<use xlink:href="#path-v0g3fsd4clk-3" x="0" y="0" stroke="#f7f900">
  <animateMotion begin="-2.03890685749538s" dur="8.12813585560818s" keyPoints="1;0" keyTimes="0;1" repeatCount="indefinite" calcMode="linear">
    <mpath xlink:href="#path8"></mpath>
  </animateMotion>
</use><path id="path9" d="M 518.5122754563298 83.04304970356394
c 0 49.54708076459914 -12.123221889210425 14.231608304725285 -26.35483019393571 14.231608304725285
S 465.80261506845835 132.59013046816307 465.80261506845835 83.04304970356394
s 12.123221889210425 -14.231608304725285 26.35483019393571 -14.231608304725285
S 518.5122754563298 33.4959689389648 518.5122754563298 83.04304970356394
z" fill="none" stroke="none"></path>
<use xlink:href="#path-v0g3fsd4clk-2" x="0" y="0" stroke="#9404b1">
  <animateMotion begin="-1.073159944674807s" dur="8.294360480647773s" keyPoints="1;0" keyTimes="0;1" repeatCount="indefinite" calcMode="linear">
    <mpath xlink:href="#path9"></mpath>
  </animateMotion>
</use><path id="path10" d="M 564.4477907347932 430.6617519533568
c 0 19.54746367853762 -4.7828900490038855 5.61469701404804 -10.397587063051926 5.61469701404804
S 543.6526166086894 450.20921563189444 543.6526166086894 430.6617519533568
s 4.7828900490038855 -5.61469701404804 10.397587063051926 -5.61469701404804
S 564.4477907347932 411.1142882748192 564.4477907347932 430.6617519533568
z" fill="none" stroke="none"></path>
<use xlink:href="#path-v0g3fsd4clk-3" x="0" y="0" stroke="#f7f900">
  <animateMotion begin="-0.013752178084409405s" dur="10.1404415504831s" keyPoints="0;1" keyTimes="0;1" repeatCount="indefinite" calcMode="linear">
    <mpath xlink:href="#path10"></mpath>
  </animateMotion>
</use><path id="path11" d="M 613.3638406208447 217.93232736879887
c 0 55.50446867157659 -13.580880632407036 15.942772916303914 -29.52365354871095 15.942772916303914
S 554.3165335234228 273.43679604037544 554.3165335234228 217.93232736879887
s 13.580880632407036 -15.942772916303914 29.52365354871095 -15.942772916303914
S 613.3638406208447 162.4278586972223 613.3638406208447 217.93232736879887
z" fill="none" stroke="none"></path>
<use xlink:href="#path-v0g3fsd4clk-3" x="0" y="0" stroke="#f7f900">
  <animateMotion begin="-1.7596250593000247s" dur="9.978913786793878s" keyPoints="1;0" keyTimes="0;1" repeatCount="indefinite" calcMode="linear">
    <mpath xlink:href="#path11"></mpath>
  </animateMotion>
</use><path id="path12" d="M 655.5627695238929 434.27185353057234
c 0 22.254889072876942 -5.445345198682655 6.392361754975292 -11.837706953657946 6.392361754975292
S 631.887355616577 456.5267426034493 631.887355616577 434.27185353057234
s 5.445345198682655 -6.392361754975292 11.837706953657946 -6.392361754975292
S 655.5627695238929 412.0169644576954 655.5627695238929 434.27185353057234
z" fill="none" stroke="none"></path>
<use xlink:href="#path-v0g3fsd4clk-2" x="0" y="0" stroke="#00ebfd">
  <animateMotion begin="-2.331963069270932s" dur="6.55411408609348s" keyPoints="0;1" keyTimes="0;1" repeatCount="indefinite" calcMode="linear">
    <mpath xlink:href="#path12"></mpath>
  </animateMotion>
</use><path id="path13" d="M 728.6876072506963 213.8614266652312
c 0 31.527980117315188 -7.714293007428183 9.055909182633087 -16.77020219006127 9.055909182633087
S 695.1472028705738 245.3894067825464 695.1472028705738 213.8614266652312
s 7.714293007428183 -9.055909182633087 16.77020219006127 -9.055909182633087
S 728.6876072506963 182.333446547916 728.6876072506963 213.8614266652312
z" fill="none" stroke="none"></path>
<use xlink:href="#path-v0g3fsd4clk-1" x="0" y="0" stroke="#00ebfd">
  <animateMotion begin="-1.0165806124423094s" dur="5.958873003074257s" keyPoints="0;1" keyTimes="0;1" repeatCount="indefinite" calcMode="linear">
    <mpath xlink:href="#path13"></mpath>
  </animateMotion>
</use><path id="path14" d="M 775.6476567863995 269.69888096276145
c 0 34.65593183575315 -8.479642895982153 9.954363399631225 -18.434006295613376 9.954363399631225
S 738.7796441951728 304.3548127985146 738.7796441951728 269.69888096276145
s 8.479642895982153 -9.954363399631225 18.434006295613376 -9.954363399631225
S 775.6476567863995 235.04294912700828 775.6476567863995 269.69888096276145
z" fill="none" stroke="none"></path>
<use xlink:href="#path-v0g3fsd4clk-1" x="0" y="0" stroke="#9404b1">
  <animateMotion begin="-0.35610846177386296s" dur="8.773189679782503s" keyPoints="0;1" keyTimes="0;1" repeatCount="indefinite" calcMode="linear">
    <mpath xlink:href="#path14"></mpath>
  </animateMotion>
</use><path id="path15" d="M 821.6013281717691 349.0406033525118
c 0 29.074790964308185 -7.114044597649875 8.351269745067246 -15.46531434271712 8.351269745067246
S 790.6706994863349 378.11539431682 790.6706994863349 349.0406033525118
s 7.114044597649875 -8.351269745067246 15.46531434271712 -8.351269745067246
S 821.6013281717691 319.96581238820363 821.6013281717691 349.0406033525118
z" fill="none" stroke="none"></path>
<use xlink:href="#path-v0g3fsd4clk-1" x="0" y="0" stroke="#00ebfd">
  <animateMotion begin="-1.8581656716883508s" dur="10.017966607439316s" keyPoints="0;1" keyTimes="0;1" repeatCount="indefinite" calcMode="linear">
    <mpath xlink:href="#path15"></mpath>
  </animateMotion>
</use><path id="path16" d="M 849.8642226093485 452.69281636019235
c 0 51.73584912628511 -12.658771594729334 14.860297089464874 -27.51906868419421 14.860297089464874
S 794.8260852409602 504.4286654864775 794.8260852409602 452.69281636019235
s 12.658771594729334 -14.860297089464874 27.51906868419421 -14.860297089464874
S 849.8642226093485 400.9569672339072 849.8642226093485 452.69281636019235
z" fill="none" stroke="none"></path>
<use xlink:href="#path-v0g3fsd4clk-3" x="0" y="0" stroke="#9404b1">
  <animateMotion begin="-2.418890152070886s" dur="9.282768688187838s" keyPoints="0;1" keyTimes="0;1" repeatCount="indefinite" calcMode="linear">
    <mpath xlink:href="#path16"></mpath>
  </animateMotion>
</use><path id="path17" d="M 913.6173423893853 479.4970075798069
c 0 23.753735901634453 -5.812084316357366 6.822881588767343 -12.634965905124709 6.822881588767343
S 888.347410579136 503.25074348144136 888.347410579136 479.4970075798069
s 5.812084316357366 -6.822881588767343 12.634965905124709 -6.822881588767343
S 913.6173423893853 455.74327167817245 913.6173423893853 479.4970075798069
z" fill="none" stroke="none"></path>
<use xlink:href="#path-v0g3fsd4clk-1" x="0" y="0" stroke="#f7f900">
  <animateMotion begin="-2.515874586081879s" dur="8.066888527859113s" keyPoints="0;1" keyTimes="0;1" repeatCount="indefinite" calcMode="linear">
    <mpath xlink:href="#path17"></mpath>
  </animateMotion>
</use><path id="path18" d="M 981.326147830808 231.67874425698565
c 0 44.81582256345618 -10.965573605952043 12.87262988524805 -23.838203491200094 12.87262988524805
S 933.6497408484078 276.49456682044183 933.6497408484078 231.67874425698565
s 10.965573605952043 -12.87262988524805 23.838203491200094 -12.87262988524805
S 981.326147830808 186.86292169352947 981.326147830808 231.67874425698565
z" fill="none" stroke="none"></path>
<use xlink:href="#path-v0g3fsd4clk-1" x="0" y="0" stroke="#f7f900">
  <animateMotion begin="-1.767272774411039s" dur="7.243853978327799s" keyPoints="1;0" keyTimes="0;1" repeatCount="indefinite" calcMode="linear">
    <mpath xlink:href="#path18"></mpath>
  </animateMotion>
</use><path id="path19" d="M 1011.0426469465904 126.65120429185113
c 0 57.311898800722105 -14.023124174644769 16.461928378930818 -30.485052553575585 16.461928378930818
S 950.0725418394393 183.96310309257325 950.0725418394393 126.65120429185113
s 14.023124174644769 -16.461928378930818 30.485052553575585 -16.461928378930818
S 1011.0426469465904 69.33930549112902 1011.0426469465904 126.65120429185113
z" fill="none" stroke="none"></path>
<use xlink:href="#path-v0g3fsd4clk-1" x="0" y="0" stroke="#00ebfd">
  <animateMotion begin="-0.22079546318865573s" dur="8.360970163072588s" keyPoints="0;1" keyTimes="0;1" repeatCount="indefinite" calcMode="linear">
    <mpath xlink:href="#path19"></mpath>
  </animateMotion>
</use><path id="path20" d="M 1055.057600022465 91.62576186392893
c 0 23.49021347621935 -5.747605425032393 6.74718897721194 -12.494794402244334 6.74718897721194
S 1030.0680112179766 115.11597534014828 1030.0680112179766 91.62576186392893
s 5.747605425032393 -6.74718897721194 12.494794402244334 -6.74718897721194
S 1055.057600022465 68.13554838770958 1055.057600022465 91.62576186392893
z" fill="none" stroke="none"></path>
<use xlink:href="#path-v0g3fsd4clk-1" x="0" y="0" stroke="#9404b1">
  <animateMotion begin="-1.305464024851546s" dur="11.21778532874531s" keyPoints="0;1" keyTimes="0;1" repeatCount="indefinite" calcMode="linear">
    <mpath xlink:href="#path20"></mpath>
  </animateMotion>
</use><path id="path21" d="M 1123.2554138235125 393.64817547979635
c 0 41.76895926430061 -10.220064500839511 11.997467022724646 -22.217531523564155 11.997467022724646
S 1078.8203507763844 435.417134744097 1078.8203507763844 393.64817547979635
s 10.220064500839511 -11.997467022724646 22.217531523564155 -11.997467022724646
S 1123.2554138235125 351.8792162154957 1123.2554138235125 393.64817547979635
z" fill="none" stroke="none"></path>
<use xlink:href="#path-v0g3fsd4clk-1" x="0" y="0" stroke="#9404b1">
  <animateMotion begin="-1.0275087572083568s" dur="6.039838794645981s" keyPoints="1;0" keyTimes="0;1" repeatCount="indefinite" calcMode="linear">
    <mpath xlink:href="#path21"></mpath>
  </animateMotion>
</use><path id="path22" d="M 1136.1299077983113 225.24040947184542
c 0 29.49604125679231 -7.217116477725777 8.472267169504175 -15.68938364722995 8.472267169504175
S 1104.7511405038513 254.73645072863775 1104.7511405038513 225.24040947184542
s 7.217116477725777 -8.472267169504175 15.68938364722995 -8.472267169504175
S 1136.1299077983113 195.7443682150531 1136.1299077983113 225.24040947184542
z" fill="none" stroke="none"></path>
<use xlink:href="#path-v0g3fsd4clk-2" x="0" y="0" stroke="#00ebfd">
  <animateMotion begin="-1.8914974329649288s" dur="9.033019563770988s" keyPoints="1;0" keyTimes="0;1" repeatCount="indefinite" calcMode="linear">
    <mpath xlink:href="#path22"></mpath>
  </animateMotion>
</use><path id="path23" d="M 1184.298287944128 339.62077938783415
c 0 36.542213777134926 -8.941179966745779 10.496167787049393 -19.437347753795173 10.496167787049393
S 1145.4235924365378 376.16299316496907 1145.4235924365378 339.62077938783415
s 8.941179966745779 -10.496167787049393 19.437347753795173 -10.496167787049393
S 1184.298287944128 303.07856561069923 1184.298287944128 339.62077938783415
z" fill="none" stroke="none"></path>
<use xlink:href="#path-v0g3fsd4clk-1" x="0" y="0" stroke="#9404b1">
  <animateMotion begin="-1.6104637749726158s" dur="9.378297880098318s" keyPoints="0;1" keyTimes="0;1" repeatCount="indefinite" calcMode="linear">
    <mpath xlink:href="#path23"></mpath>
  </animateMotion>
</use></g>
</svg>