<?xml version="1.0" standalone="no"?>
<svg xmlns:xlink="http://www.w3.org/1999/xlink" id="wave" style="transform:rotate(180deg); transition: 0.3s" viewBox="0 0 1440 330" version="1.1" xmlns="http://www.w3.org/2000/svg"><defs><linearGradient id="sw-gradient-0" x1="0" x2="0" y1="1" y2="0"><stop stop-color="rgba(148, 4, 177, 1)" offset="0%"/><stop stop-color="rgba(236, 115, 87, 1)" offset="100%"/></linearGradient></defs><path style="transform:translate(0, 0px); opacity:1" fill="url(#sw-gradient-0)" d="M0,198L26.7,187C53.3,176,107,154,160,154C213.3,154,267,176,320,159.5C373.3,143,427,88,480,82.5C533.3,77,587,121,640,143C693.3,165,747,165,800,137.5C853.3,110,907,55,960,60.5C1013.3,66,1067,132,1120,143C1173.3,154,1227,110,1280,77C1333.3,44,1387,22,1440,22C1493.3,22,1547,44,1600,93.5C1653.3,143,1707,220,1760,236.5C1813.3,253,1867,209,1920,176C1973.3,143,2027,121,2080,115.5C2133.3,110,2187,121,2240,154C2293.3,187,2347,242,2400,231C2453.3,220,2507,143,2560,137.5C2613.3,132,2667,198,2720,203.5C2773.3,209,2827,154,2880,115.5C2933.3,77,2987,55,3040,88C3093.3,121,3147,209,3200,231C3253.3,253,3307,209,3360,176C3413.3,143,3467,121,3520,104.5C3573.3,88,3627,77,3680,93.5C3733.3,110,3787,154,3813,176L3840,198L3840,330L3813.3,330C3786.7,330,3733,330,3680,330C3626.7,330,3573,330,3520,330C3466.7,330,3413,330,3360,330C3306.7,330,3253,330,3200,330C3146.7,330,3093,330,3040,330C2986.7,330,2933,330,2880,330C2826.7,330,2773,330,2720,330C2666.7,330,2613,330,2560,330C2506.7,330,2453,330,2400,330C2346.7,330,2293,330,2240,330C2186.7,330,2133,330,2080,330C2026.7,330,1973,330,1920,330C1866.7,330,1813,330,1760,330C1706.7,330,1653,330,1600,330C1546.7,330,1493,330,1440,330C1386.7,330,1333,330,1280,330C1226.7,330,1173,330,1120,330C1066.7,330,1013,330,960,330C906.7,330,853,330,800,330C746.7,330,693,330,640,330C586.7,330,533,330,480,330C426.7,330,373,330,320,330C266.7,330,213,330,160,330C106.7,330,53,330,27,330L0,330Z"/></svg>